<?xml version="1.0" encoding="UTF-8"?><svg id="Layer_1" xmlns="http://www.w3.org/2000/svg" viewBox="0 0 501 501"><defs><style>.cls-1{fill:none;}.cls-2{fill:#dbdada;}.cls-3{fill:#212121;stroke:#231f20;stroke-miterlimit:10;}</style></defs><rect class="cls-3" x=".5" y=".5" width="500" height="500" rx="83.09" ry="83.09"/><rect class="cls-1" x=".5" y=".5" width="500" height="500"/><path class="cls-2" d="M198.35,307.19h-89.36l-20.07,55.81h-29l81.45-213.28h24.61l81.59,213.28h-28.86l-20.36-55.81ZM117.49,284.19h72.51l-36.33-99.76-36.18,99.76Z"/><path class="cls-2" d="M431.55,295.32c-2.64,22.56-10.96,39.97-24.98,52.22-14.01,12.26-32.64,18.38-55.88,18.38-25.2,0-45.39-9.03-60.57-27.1-15.19-18.07-22.78-42.24-22.78-72.51v-20.51c0-19.82,3.54-37.25,10.62-52.29,7.08-15.04,17.11-26.59,30.1-34.64,12.99-8.06,28.03-12.08,45.12-12.08,22.65,0,40.82,6.32,54.49,18.97,13.67,12.65,21.63,30.15,23.88,52.51h-28.27c-2.44-17.04-7.74-29.39-15.89-37.03-8.16-7.64-19.56-11.46-34.2-11.46-17.97,0-32.06,6.65-42.26,19.94-10.21,13.29-15.31,32.2-15.31,56.73v20.67c0,23.17,4.83,41.59,14.5,55.27s23.19,20.52,40.58,20.52c15.62,0,27.61-3.54,35.96-10.62,8.35-7.08,13.89-19.41,16.63-36.99h28.27Z"/></svg>